<?xml version="1.0" encoding="utf-8"?>
<!-- Generator: Adobe Illustrator 16.0.0, SVG Export Plug-In . SVG Version: 6.00 Build 0)  -->
<!DOCTYPE svg PUBLIC "-//W3C//DTD SVG 1.1//EN" "http://www.w3.org/Graphics/SVG/1.1/DTD/svg11.dtd">
<svg version="1.1" id="Capa_1" xmlns="http://www.w3.org/2000/svg" xmlns:xlink="http://www.w3.org/1999/xlink" x="0px" y="0px"
	 width="16.89px" height="17.942px" viewBox="-16 -33.506 16.89 17.942" enable-background="new -16 -33.506 16.89 17.942"
	 xml:space="preserve">
<g>
	<g>
		<path fill-rule="evenodd" clip-rule="evenodd" d="M-5.208-23.551c0.718,0.463,1.519,0.818,2.347,1.206
			c0.811,0.38,1.7,0.734,2.381,1.202c1.127,0.773,1.37,0.688,1.37,4.486c-0.549,0.207-1.106,0.314-1.739,0.46
			c-3.195,0.737-7.69,0.796-11.318,0.354c-1.446-0.176-2.69-0.337-3.832-0.716c0.056-1.924,0.376-4.21,1.604-5.046
			c0.604-0.412,1.411-0.686,2.129-0.985c0.709-0.296,1.466-0.687,2.151-0.989c-0.115-0.326-0.172-0.294-0.349-0.637
			c-0.121-0.234-0.402-0.514-0.534-0.781c-0.17-0.345-0.466-0.565-0.639-0.852c-0.331-0.552-0.953-2.108-0.231-2.732
			c-0.204-3.008,1.438-4.736,3.817-4.911c2.41-0.177,4.44,1.156,4.606,3.314c0.034,0.44-0.162,1.057,0.004,1.561
			c0.073,0.222,0.229,0.289,0.288,0.497c0.252,0.881-0.031,1.565-0.363,2.058c-0.134,0.2-0.257,0.36-0.367,0.568
			c-0.203,0.38-0.511,0.809-0.712,1.17C-4.798-23.958-4.961-23.875-5.208-23.551z M-4.291-28.26c-0.1-0.288,0-0.749,0-0.993
			c0-2.331-1.058-3.341-3.406-3.33c-2.318,0.012-3.571,1.33-3.229,4.358c-0.743,0.333-0.295,1.627,0.071,2.2
			c0.182,0.286,0.479,0.495,0.604,0.746c0.118,0.24,0.137,0.284,0.248,0.519c0.405,0.85,1.178,1.568,2.165,1.667
			c1.456,0.147,2.282-1.106,2.697-1.951c0.141-0.286,0.18-0.386,0.354-0.731c0.1-0.196,0.321-0.335,0.461-0.533
			c0.302-0.427,0.528-0.857,0.391-1.632C-4.073-28.12-4.223-28.062-4.291-28.26z M-11.636-21.944
			c-0.719,0.308-1.536,0.554-2.129,0.958c-1.085,0.739-1.07,2.157-1.266,3.77c4.26,0.821,10.689,1.132,15.013,0.062
			c-0.113-1.462,0.024-2.611-0.832-3.3c-0.638-0.514-1.728-0.831-2.59-1.242c-0.873-0.415-1.692-0.87-2.448-1.242
			c-0.777,0.846-2.78,0.771-3.548-0.035C-10.107-22.567-10.891-22.263-11.636-21.944z"/>
	</g>
</g>
</svg>
