<?xml version="1.0" encoding="utf-8"?>
<!-- Generator: Adobe Illustrator 16.0.0, SVG Export Plug-In . SVG Version: 6.00 Build 0)  -->
<!DOCTYPE svg PUBLIC "-//W3C//DTD SVG 1.1//EN" "http://www.w3.org/Graphics/SVG/1.1/DTD/svg11.dtd">
<svg version="1.1" id="Capa_1" xmlns="http://www.w3.org/2000/svg" xmlns:xlink="http://www.w3.org/1999/xlink" x="0px" y="0px"
	 width="25.792px" height="18.367px" viewBox="13.761 -33.718 25.792 18.367" enable-background="new 13.761 -33.718 25.792 18.367"
	 xml:space="preserve">
<g>
	<g>
		<path d="M18.386-15.351c-1.473,0-2.671-1.198-2.671-2.671c0-1.473,1.198-2.671,2.671-2.671s2.671,1.198,2.671,2.671
			C21.057-16.549,19.858-15.351,18.386-15.351z M18.386-19.693c-0.921,0-1.671,0.75-1.671,1.671s0.75,1.671,1.671,1.671
			s1.671-0.75,1.671-1.671S19.307-19.693,18.386-19.693z"/>
	</g>
	<g>
		<path d="M34.537-15.351c-1.473,0-2.671-1.198-2.671-2.671c0-1.473,1.198-2.671,2.671-2.671s2.671,1.198,2.671,2.671
			C37.208-16.549,36.01-15.351,34.537-15.351z M34.537-19.693c-0.921,0-1.671,0.75-1.671,1.671s0.75,1.671,1.671,1.671
			s1.671-0.75,1.671-1.671S35.458-19.693,34.537-19.693z"/>
	</g>
	<path d="M30.021-33.718H14.261c-0.276,0-0.5,0.224-0.5,0.5v15.023c0,0.276,0.224,0.5,0.5,0.5h2.282
		c-0.02-0.106-0.033-0.215-0.033-0.327c0-0.238,0.049-0.464,0.13-0.673h-1.879v-14.023h14.761v14.023h-9.39
		c0.081,0.209,0.13,0.436,0.13,0.673c0,0.112-0.014,0.22-0.033,0.327h9.793c0.276,0,0.5-0.224,0.5-0.5v-15.023
		C30.521-33.495,30.298-33.718,30.021-33.718z"/>
	<path d="M32.571-18.695h-2.55c-0.276,0-0.5,0.224-0.5,0.5s0.224,0.5,0.5,0.5h2.462c-0.018-0.107-0.033-0.215-0.033-0.327
		C32.45-18.259,32.498-18.483,32.571-18.695z"/>
	<path d="M39.434-24.25l-4.429-5.21c-0.095-0.112-0.234-0.176-0.381-0.176h-4.603c-0.276,0-0.5,0.224-0.5,0.5s0.224,0.5,0.5,0.5
		h4.371l4.16,4.894v5.048h-2.05c0.073,0.212,0.121,0.437,0.121,0.673c0,0.112-0.016,0.22-0.033,0.327h2.462
		c0.276,0,0.5-0.224,0.5-0.5v-5.731C39.553-24.045,39.511-24.16,39.434-24.25z"/>
</g>
</svg>
