<?xml version="1.0" encoding="utf-8"?>
<!-- Generator: Adobe Illustrator 16.0.0, SVG Export Plug-In . SVG Version: 6.00 Build 0)  -->
<!DOCTYPE svg PUBLIC "-//W3C//DTD SVG 1.1//EN" "http://www.w3.org/Graphics/SVG/1.1/DTD/svg11.dtd">
<svg version="1.1" id="Capa_1" xmlns="http://www.w3.org/2000/svg" xmlns:xlink="http://www.w3.org/1999/xlink" x="0px" y="0px"
	 width="15.989px" height="20.017px" viewBox="79.591 -36.662 15.989 20.017" enable-background="new 79.591 -36.662 15.989 20.017"
	 xml:space="preserve">
<g>
	<g>
		<path fill-rule="evenodd" clip-rule="evenodd" d="M91.656-31.623c0.139-3.068-1.3-4.654-3.845-5.04h-0.398
			c-2.545,0.386-4.017,1.969-3.876,5.04c-1.065,0-3.946,0-3.946,0l0.023,14.978l15.965-0.022l0.001-14.955
			C95.58-31.623,92.735-31.623,91.656-31.623z M87.173-35.823c2.453-0.253,3.884,1.487,3.716,4.076h-0.281
			c-0.002,0.032,0.002,0.061,0,0.094h-5.99c-0.003-0.032,0-0.062-0.003-0.094h-0.278C84.129-34.025,85.38-35.638,87.173-35.823z
			 M80.596-17.623l-0.005-13.014h2.977v1.181c-0.102-0.104-0.242-0.171-0.4-0.171c-0.307,0-0.555,0.246-0.555,0.55
			c0,0.304,0.248,0.55,0.555,0.55c0.175,0,0.324-0.084,0.427-0.209h0.974v-1.9h5.969v2.056h1v-0.293
			c0.081,0.177,0.26,0.302,0.47,0.302c0.286,0,0.518-0.229,0.518-0.512c0-0.283-0.231-0.512-0.518-0.512
			c-0.21,0-0.389,0.125-0.47,0.302v-1.343h3.044l0.018,13.014H80.596z"/>
	</g>
</g>
</svg>
