<?xml version="1.0" encoding="utf-8"?>
<!-- Generator: Adobe Illustrator 16.0.0, SVG Export Plug-In . SVG Version: 6.00 Build 0)  -->
<!DOCTYPE svg PUBLIC "-//W3C//DTD SVG 1.1//EN" "http://www.w3.org/Graphics/SVG/1.1/DTD/svg11.dtd">
<svg version="1.1" id="Capa_1" xmlns="http://www.w3.org/2000/svg" xmlns:xlink="http://www.w3.org/1999/xlink" x="0px" y="0px"
	 width="20.391px" height="20.426px" viewBox="102.588 -36.743 20.391 20.426"
	 enable-background="new 102.588 -36.743 20.391 20.426" xml:space="preserve">
<g>
	<g>
		<path fill-rule="evenodd" clip-rule="evenodd" fill="#FFFFFF" d="M120.611-24.392c0.674-1.816,1.293-3.493,2.037-5.448
			c0.143-0.374,0.437-0.827,0.291-1.123c-0.198-0.403-2.583-0.208-3.202-0.208h-10.23c-0.54-1.484-0.571-3.179-1.206-4.408
			c-0.771-1.494-2.69-1.051-4.782-1.165h-0.125c-1.19,0.098-0.999,1.852,0.167,1.705c0.458-0.058,0.592-0.396,0.748-0.832
			c0.833,0.111,2.192-0.216,2.828,0.166c0.789,0.475,1.017,2.703,1.289,3.785c0.697,2.77,1.305,5.323,1.996,8.068
			c0.333,1.32,0.588,2.941,1.082,3.95c0.178,0.364,0.488,0.662,0.789,0.832c-0.27,0.434-0.469,0.961-0.291,1.58
			c0.605,2.099,4.241,1.146,3.119-1.372h2.495c0.038,0.231-0.189,0.668-0.124,1.206c0.232,1.937,3.52,1.758,3.368-0.457
			c-0.024-0.359-0.172-0.535-0.291-0.791c-0.105-0.227-0.112-0.512-0.333-0.748c-1.082-0.074-2.463-0.042-3.95-0.042
			c-1.18,0-3.065,0.272-3.743-0.208c-0.653-0.463-0.518-1.525-0.832-2.37h7.985C120.125-22.885,120.337-23.653,120.611-24.392z
			 M118.906-18.777c1.347-0.366,1.46,1.632,0.291,1.664C118.248-17.088,117.994-18.529,118.906-18.777z M113.375-18.777
			c1.583-0.425,1.293,2.058-0.042,1.622C112.781-17.336,112.471-18.534,113.375-18.777z M111.461-23.103
			c-0.543-2.408-1.152-4.753-1.746-7.111c-0.004-0.059-0.007-0.118,0.041-0.125h12.228c-0.932,2.396-1.838,4.817-2.745,7.236
			H111.461z"/>
	</g>
</g>
</svg>
